<svg xmlns="http://www.w3.org/2000/svg" viewBox="0 0 340 220" fill="#081E26">
  <!-- Main body -->
  <path d="M72 110 Q88 62 175 56 Q258 50 296 84 Q316 100 310 118 Q302 138 268 148 Q185 164 110 156 Q72 148 68 118 Z"/>

  <!-- Head  slightly rounded snout -->
  <path d="M72 110 Q58 96 50 80 Q42 62 54 52 Q66 44 76 58 Q70 78 72 110 Z"/>

  <!-- Barbels (whiskers)  4 total from snout -->
  <path d="M54 74 Q34 66 14 68"  fill="none" stroke="#081E26" stroke-width="3.5" stroke-linecap="round"/>
  <path d="M52 86 Q30 88 10 96"  fill="none" stroke="#081E26" stroke-width="3.5" stroke-linecap="round"/>
  <path d="M56 66 Q44 52 30 46"  fill="none" stroke="#081E26" stroke-width="3"   stroke-linecap="round"/>
  <path d="M56 96 Q36 108 18 112" fill="none" stroke="#081E26" stroke-width="3"   stroke-linecap="round"/>

  <!-- Dorsal fin (top) -->
  <path d="M144 57 Q162 24 200 18 Q228 14 232 44 Q214 52 180 56 Q162 58 144 57 Z"/>

  <!-- Adipose fin (small, behind dorsal) -->
  <path d="M248 58 Q260 44 272 50 Q270 60 258 64 Z"/>

  <!-- Pectoral fin (side, large) -->
  <path d="M96 128 Q78 148 60 162 Q52 170 62 168 Q82 158 102 142 Z"/>

  <!-- Pelvic fin -->
  <path d="M168 154 Q172 172 158 182 Q150 178 150 166 Z"/>

  <!-- Anal fin -->
  <path d="M212 150 Q224 168 210 176 Q202 172 202 160 Z"/>

  <!-- Tail  forked -->
  <path d="M296 84  Q318 64 330 44 Q334 32 324 28 Q312 26 306 40 Q300 56 296 84 Z"/>
  <path d="M296 118 Q318 140 328 162 Q332 174 322 176 Q310 178 304 164 Q298 148 296 118 Z"/>

  <!-- Eye -->
  <circle cx="60" cy="80" r="7"/>
  <circle cx="60" cy="80" r="3" fill="white" opacity="0.25"/>
</svg>
