<svg xmlns="http://www.w3.org/2000/svg" viewBox="0 0 260 240" fill="none">
  <path d="M120 90 Q135 55 148 78 Q162 48 170 74 Q185 52 188 78 Q202 60 198 86 Q214 76 208 98 Q222 95 215 115 Q228 112 220 130 Q232 138 218 146 Q222 158 208 155 Q206 170 192 164 Q185 178 174 168 Q162 182 154 168 Q140 178 140 164 Q126 170 130 154 Q115 154 122 138 Q106 130 118 118 Q104 105 120 100 Q110 83 128 90Z" fill="#3A7889" opacity="0.2"/>
  <circle cx="215" cy="168" r="7" fill="#3A7889" opacity="0.18"/>
  <circle cx="108" cy="150" r="5" fill="#3A7889" opacity="0.18"/>
  <path d="M228 148 Q236 155 228 162 Q236 158 234 165Z" fill="#3A7889" opacity="0.18"/>
  <path d="M92 115 Q84 122 90 130Z" fill="#3A7889" opacity="0.18"/>
  <circle cx="230" cy="178" r="4" fill="#3A7889" opacity="0.15"/>
  <circle cx="96" cy="108" r="4" fill="#3A7889" opacity="0.15"/>
</svg>
